<mxfile host="app.diagrams.net" agent="Mozilla/5.0 (Windows NT 10.0; Win64; x64) AppleWebKit/537.36 (KHTML, like Gecko) Chrome/129.0.0.0 Safari/537.36" version="24.7.17">
  <diagram name="페이지-1" id="O_5YI7VtIbmLpw0LFxMn">
    <mxGraphModel dx="819" dy="441" grid="1" gridSize="10" guides="1" tooltips="1" connect="1" arrows="1" fold="1" page="1" pageScale="1" pageWidth="827" pageHeight="1169" math="0" shadow="0">
      <root>
        <mxCell id="0" />
        <mxCell id="1" parent="0" />
        <mxCell id="0k6C3laeqcdQqS4-GQry-1" value="" style="shape=table;startSize=0;container=1;collapsible=0;childLayout=tableLayout;fontSize=12;" vertex="1" parent="1">
          <mxGeometry x="60" y="130" width="656" height="116" as="geometry" />
        </mxCell>
        <mxCell id="0k6C3laeqcdQqS4-GQry-2" value="" style="shape=tableRow;horizontal=0;startSize=0;swimlaneHead=0;swimlaneBody=0;strokeColor=inherit;top=0;left=0;bottom=0;right=0;collapsible=0;dropTarget=0;fillColor=none;points=[[0,0.5],[1,0.5]];portConstraint=eastwest;fontSize=12;" vertex="1" parent="0k6C3laeqcdQqS4-GQry-1">
          <mxGeometry width="656" height="23" as="geometry" />
        </mxCell>
        <mxCell id="0k6C3laeqcdQqS4-GQry-3" value="이름" style="shape=partialRectangle;html=1;whiteSpace=wrap;connectable=0;strokeColor=#d6b656;overflow=hidden;fillColor=#fff2cc;top=0;left=0;bottom=0;right=0;pointerEvents=1;fontSize=12;labelBackgroundColor=none;" vertex="1" parent="0k6C3laeqcdQqS4-GQry-2">
          <mxGeometry width="186" height="23" as="geometry">
            <mxRectangle width="186" height="23" as="alternateBounds" />
          </mxGeometry>
        </mxCell>
        <mxCell id="0k6C3laeqcdQqS4-GQry-4" value="타입" style="shape=partialRectangle;html=1;whiteSpace=wrap;connectable=0;strokeColor=#d6b656;overflow=hidden;fillColor=#fff2cc;top=0;left=0;bottom=0;right=0;pointerEvents=1;fontSize=12;labelBackgroundColor=none;" vertex="1" parent="0k6C3laeqcdQqS4-GQry-2">
          <mxGeometry x="186" width="70" height="23" as="geometry">
            <mxRectangle width="70" height="23" as="alternateBounds" />
          </mxGeometry>
        </mxCell>
        <mxCell id="0k6C3laeqcdQqS4-GQry-5" value="내용" style="shape=partialRectangle;html=1;whiteSpace=wrap;connectable=0;strokeColor=#d6b656;overflow=hidden;fillColor=#fff2cc;top=0;left=0;bottom=0;right=0;pointerEvents=1;fontSize=12;" vertex="1" parent="0k6C3laeqcdQqS4-GQry-2">
          <mxGeometry x="256" width="400" height="23" as="geometry">
            <mxRectangle width="400" height="23" as="alternateBounds" />
          </mxGeometry>
        </mxCell>
        <mxCell id="0k6C3laeqcdQqS4-GQry-6" value="" style="shape=tableRow;horizontal=0;startSize=0;swimlaneHead=0;swimlaneBody=0;strokeColor=inherit;top=0;left=0;bottom=0;right=0;collapsible=0;dropTarget=0;fillColor=none;points=[[0,0.5],[1,0.5]];portConstraint=eastwest;fontSize=12;" vertex="1" parent="0k6C3laeqcdQqS4-GQry-1">
          <mxGeometry y="23" width="656" height="24" as="geometry" />
        </mxCell>
        <mxCell id="0k6C3laeqcdQqS4-GQry-7" value="message_text" style="shape=partialRectangle;html=1;whiteSpace=wrap;connectable=0;strokeColor=inherit;overflow=hidden;fillColor=none;top=0;left=0;bottom=0;right=0;pointerEvents=1;fontSize=12;align=left;fontColor=default;labelBorderColor=none;" vertex="1" parent="0k6C3laeqcdQqS4-GQry-6">
          <mxGeometry width="186" height="24" as="geometry">
            <mxRectangle width="186" height="24" as="alternateBounds" />
          </mxGeometry>
        </mxCell>
        <mxCell id="0k6C3laeqcdQqS4-GQry-8" value="STR" style="shape=partialRectangle;html=1;whiteSpace=wrap;connectable=0;strokeColor=inherit;overflow=hidden;fillColor=none;top=0;left=0;bottom=0;right=0;pointerEvents=1;fontSize=12;" vertex="1" parent="0k6C3laeqcdQqS4-GQry-6">
          <mxGeometry x="186" width="70" height="24" as="geometry">
            <mxRectangle width="70" height="24" as="alternateBounds" />
          </mxGeometry>
        </mxCell>
        <mxCell id="0k6C3laeqcdQqS4-GQry-9" value="메시지 내용" style="shape=partialRectangle;html=1;whiteSpace=wrap;connectable=0;strokeColor=inherit;overflow=hidden;fillColor=none;top=0;left=0;bottom=0;right=0;pointerEvents=1;fontSize=12;align=left;" vertex="1" parent="0k6C3laeqcdQqS4-GQry-6">
          <mxGeometry x="256" width="400" height="24" as="geometry">
            <mxRectangle width="400" height="24" as="alternateBounds" />
          </mxGeometry>
        </mxCell>
        <mxCell id="0k6C3laeqcdQqS4-GQry-10" value="" style="shape=tableRow;horizontal=0;startSize=0;swimlaneHead=0;swimlaneBody=0;strokeColor=inherit;top=0;left=0;bottom=0;right=0;collapsible=0;dropTarget=0;fillColor=none;points=[[0,0.5],[1,0.5]];portConstraint=eastwest;fontSize=12;" vertex="1" parent="0k6C3laeqcdQqS4-GQry-1">
          <mxGeometry y="47" width="656" height="23" as="geometry" />
        </mxCell>
        <mxCell id="0k6C3laeqcdQqS4-GQry-11" value="message_user_id" style="shape=partialRectangle;html=1;whiteSpace=wrap;connectable=0;strokeColor=inherit;overflow=hidden;fillColor=none;top=0;left=0;bottom=0;right=0;pointerEvents=1;fontSize=12;align=left;fontColor=default;labelBorderColor=none;" vertex="1" parent="0k6C3laeqcdQqS4-GQry-10">
          <mxGeometry width="186" height="23" as="geometry">
            <mxRectangle width="186" height="23" as="alternateBounds" />
          </mxGeometry>
        </mxCell>
        <mxCell id="0k6C3laeqcdQqS4-GQry-12" value="STR" style="shape=partialRectangle;html=1;whiteSpace=wrap;connectable=0;strokeColor=inherit;overflow=hidden;fillColor=none;top=0;left=0;bottom=0;right=0;pointerEvents=1;fontSize=12;" vertex="1" parent="0k6C3laeqcdQqS4-GQry-10">
          <mxGeometry x="186" width="70" height="23" as="geometry">
            <mxRectangle width="70" height="23" as="alternateBounds" />
          </mxGeometry>
        </mxCell>
        <mxCell id="0k6C3laeqcdQqS4-GQry-13" value="사용자 아이디" style="shape=partialRectangle;html=1;whiteSpace=wrap;connectable=0;strokeColor=inherit;overflow=hidden;fillColor=none;top=0;left=0;bottom=0;right=0;pointerEvents=1;fontSize=12;align=left;" vertex="1" parent="0k6C3laeqcdQqS4-GQry-10">
          <mxGeometry x="256" width="400" height="23" as="geometry">
            <mxRectangle width="400" height="23" as="alternateBounds" />
          </mxGeometry>
        </mxCell>
        <mxCell id="0k6C3laeqcdQqS4-GQry-26" style="shape=tableRow;horizontal=0;startSize=0;swimlaneHead=0;swimlaneBody=0;strokeColor=inherit;top=0;left=0;bottom=0;right=0;collapsible=0;dropTarget=0;fillColor=none;points=[[0,0.5],[1,0.5]];portConstraint=eastwest;fontSize=12;" vertex="1" parent="0k6C3laeqcdQqS4-GQry-1">
          <mxGeometry y="70" width="656" height="23" as="geometry" />
        </mxCell>
        <mxCell id="0k6C3laeqcdQqS4-GQry-27" value="message_room_id" style="shape=partialRectangle;html=1;whiteSpace=wrap;connectable=0;strokeColor=inherit;overflow=hidden;fillColor=none;top=0;left=0;bottom=0;right=0;pointerEvents=1;fontSize=12;align=left;fontColor=default;labelBorderColor=none;" vertex="1" parent="0k6C3laeqcdQqS4-GQry-26">
          <mxGeometry width="186" height="23" as="geometry">
            <mxRectangle width="186" height="23" as="alternateBounds" />
          </mxGeometry>
        </mxCell>
        <mxCell id="0k6C3laeqcdQqS4-GQry-28" value="STR" style="shape=partialRectangle;html=1;whiteSpace=wrap;connectable=0;strokeColor=inherit;overflow=hidden;fillColor=none;top=0;left=0;bottom=0;right=0;pointerEvents=1;fontSize=12;" vertex="1" parent="0k6C3laeqcdQqS4-GQry-26">
          <mxGeometry x="186" width="70" height="23" as="geometry">
            <mxRectangle width="70" height="23" as="alternateBounds" />
          </mxGeometry>
        </mxCell>
        <mxCell id="0k6C3laeqcdQqS4-GQry-29" value="채팅방 아이디" style="shape=partialRectangle;html=1;whiteSpace=wrap;connectable=0;strokeColor=inherit;overflow=hidden;fillColor=none;top=0;left=0;bottom=0;right=0;pointerEvents=1;fontSize=12;align=left;" vertex="1" parent="0k6C3laeqcdQqS4-GQry-26">
          <mxGeometry x="256" width="400" height="23" as="geometry">
            <mxRectangle width="400" height="23" as="alternateBounds" />
          </mxGeometry>
        </mxCell>
        <mxCell id="0k6C3laeqcdQqS4-GQry-14" style="shape=tableRow;horizontal=0;startSize=0;swimlaneHead=0;swimlaneBody=0;strokeColor=inherit;top=0;left=0;bottom=0;right=0;collapsible=0;dropTarget=0;fillColor=none;points=[[0,0.5],[1,0.5]];portConstraint=eastwest;fontSize=12;" vertex="1" parent="0k6C3laeqcdQqS4-GQry-1">
          <mxGeometry y="93" width="656" height="23" as="geometry" />
        </mxCell>
        <mxCell id="0k6C3laeqcdQqS4-GQry-15" value="message_timestamp" style="shape=partialRectangle;html=1;whiteSpace=wrap;connectable=0;strokeColor=inherit;overflow=hidden;fillColor=none;top=0;left=0;bottom=0;right=0;pointerEvents=1;fontSize=12;align=left;fontColor=default;labelBorderColor=none;" vertex="1" parent="0k6C3laeqcdQqS4-GQry-14">
          <mxGeometry width="186" height="23" as="geometry">
            <mxRectangle width="186" height="23" as="alternateBounds" />
          </mxGeometry>
        </mxCell>
        <mxCell id="0k6C3laeqcdQqS4-GQry-16" value="STR" style="shape=partialRectangle;html=1;whiteSpace=wrap;connectable=0;strokeColor=inherit;overflow=hidden;fillColor=none;top=0;left=0;bottom=0;right=0;pointerEvents=1;fontSize=12;" vertex="1" parent="0k6C3laeqcdQqS4-GQry-14">
          <mxGeometry x="186" width="70" height="23" as="geometry">
            <mxRectangle width="70" height="23" as="alternateBounds" />
          </mxGeometry>
        </mxCell>
        <mxCell id="0k6C3laeqcdQqS4-GQry-17" value="메시지 전송 날짜 및 시간" style="shape=partialRectangle;html=1;whiteSpace=wrap;connectable=0;strokeColor=inherit;overflow=hidden;fillColor=none;top=0;left=0;bottom=0;right=0;pointerEvents=1;fontSize=12;align=left;" vertex="1" parent="0k6C3laeqcdQqS4-GQry-14">
          <mxGeometry x="256" width="400" height="23" as="geometry">
            <mxRectangle width="400" height="23" as="alternateBounds" />
          </mxGeometry>
        </mxCell>
        <mxCell id="0k6C3laeqcdQqS4-GQry-22" value="a. 채팅방 생성시 전송하는 채팅 내역 JSON 정의" style="text;html=1;align=left;verticalAlign=middle;whiteSpace=wrap;rounded=0;fontStyle=1" vertex="1" parent="1">
          <mxGeometry x="60" y="100" width="290" height="30" as="geometry" />
        </mxCell>
        <mxCell id="0k6C3laeqcdQqS4-GQry-23" value="&lt;font style=&quot;font-size: 16px;&quot;&gt;1.1 정보&lt;/font&gt;" style="text;html=1;align=left;verticalAlign=middle;whiteSpace=wrap;rounded=0;fontStyle=1" vertex="1" parent="1">
          <mxGeometry x="20" y="50" width="290" height="30" as="geometry" />
        </mxCell>
        <mxCell id="0k6C3laeqcdQqS4-GQry-24" value=": JSON 규격" style="text;html=1;align=left;verticalAlign=middle;whiteSpace=wrap;rounded=0;fontSize=10;" vertex="1" parent="1">
          <mxGeometry x="40" y="70" width="70" height="30" as="geometry" />
        </mxCell>
        <mxCell id="0k6C3laeqcdQqS4-GQry-25" value="b. 채팅 내역 전송 예시" style="text;html=1;align=left;verticalAlign=middle;whiteSpace=wrap;rounded=0;fontStyle=1" vertex="1" parent="1">
          <mxGeometry x="60" y="280" width="290" height="30" as="geometry" />
        </mxCell>
        <mxCell id="0k6C3laeqcdQqS4-GQry-30" value="{&lt;div&gt;&lt;span style=&quot;white-space: pre;&quot;&gt;&#x9;&lt;/span&gt;&quot;message_text&quot;:[&lt;/div&gt;&lt;div&gt;&lt;span style=&quot;white-space: pre;&quot;&gt;&#x9;&lt;/span&gt;&lt;span style=&quot;white-space: pre;&quot;&gt;&#x9;&lt;/span&gt;{&lt;/div&gt;&lt;div&gt;&lt;span style=&quot;white-space: pre;&quot;&gt;&#x9;&lt;/span&gt;&lt;span style=&quot;white-space: pre;&quot;&gt;&#x9;&lt;/span&gt;&lt;span style=&quot;white-space: pre;&quot;&gt;&#x9;&lt;/span&gt;&quot;message_text&quot;:&quot;재훈 -&amp;gt; 민수&quot;,&lt;/div&gt;&lt;div&gt;&lt;span style=&quot;white-space: pre;&quot;&gt;&#x9;&lt;/span&gt;&lt;span style=&quot;white-space: pre;&quot;&gt;&#x9;&lt;/span&gt;&lt;span style=&quot;white-space: pre;&quot;&gt;&#x9;&lt;/span&gt;&quot;message_user_id&quot;:&quot;jh051777&quot;,&lt;/div&gt;&lt;div&gt;&lt;span style=&quot;white-space: pre;&quot;&gt;&#x9;&lt;/span&gt;&lt;span style=&quot;white-space: pre;&quot;&gt;&#x9;&lt;/span&gt;&lt;span style=&quot;white-space: pre;&quot;&gt;&#x9;&lt;/span&gt;&quot;message_room_id&quot;:&quot;56&quot;,&lt;br&gt;&lt;/div&gt;&lt;div&gt;&lt;span style=&quot;white-space: pre;&quot;&gt;&#x9;&lt;/span&gt;&lt;span style=&quot;white-space: pre;&quot;&gt;&#x9;&lt;/span&gt;&lt;span style=&quot;white-space: pre;&quot;&gt;&#x9;&lt;/span&gt;&quot;message_timestamp&quot;:&quot;2024-10-08 14:58:18.589&quot;&lt;br&gt;&lt;/div&gt;&lt;div&gt;&lt;span style=&quot;white-space: pre;&quot;&gt;&#x9;&lt;/span&gt;&lt;span style=&quot;white-space: pre;&quot;&gt;&#x9;&lt;/span&gt;},&lt;/div&gt;&lt;div&gt;&lt;span style=&quot;white-space: pre;&quot;&gt;&#x9;&lt;/span&gt;&lt;span style=&quot;white-space: pre;&quot;&gt;&#x9;&lt;/span&gt;{&lt;/div&gt;&lt;div&gt;&lt;span style=&quot;white-space: pre;&quot;&gt;&#x9;&lt;/span&gt;&lt;span style=&quot;white-space: pre;&quot;&gt;&#x9;&lt;/span&gt;&lt;span style=&quot;white-space: pre;&quot;&gt;&#x9;&lt;/span&gt;&quot;message_text&quot;:&quot;민수 -&amp;gt; 재훈&quot;,&lt;/div&gt;&lt;div&gt;&lt;span style=&quot;white-space: pre;&quot;&gt;&#x9;&lt;/span&gt;&lt;span style=&quot;white-space: pre;&quot;&gt;&#x9;&lt;/span&gt;&lt;span style=&quot;white-space: pre;&quot;&gt;&#x9;&lt;/span&gt;&quot;message_user_id&quot;:&quot;thsalstn&quot;,&lt;/div&gt;&lt;div&gt;&lt;span style=&quot;white-space: pre;&quot;&gt;&#x9;&lt;/span&gt;&lt;span style=&quot;white-space: pre;&quot;&gt;&#x9;&lt;/span&gt;&lt;span style=&quot;white-space: pre;&quot;&gt;&#x9;&lt;/span&gt;&quot;message_room_id&quot;:&quot;56&quot;,&lt;br&gt;&lt;/div&gt;&lt;div&gt;&lt;span style=&quot;white-space: pre;&quot;&gt;&#x9;&lt;/span&gt;&lt;span style=&quot;white-space: pre;&quot;&gt;&#x9;&lt;/span&gt;&lt;span style=&quot;white-space: pre;&quot;&gt;&#x9;&lt;/span&gt;&quot;message_timestamp&quot;:&quot;2024-10-08 14:58:26.572&quot;&lt;br&gt;&lt;/div&gt;&lt;div&gt;&lt;span style=&quot;white-space: pre;&quot;&gt;&#x9;&lt;/span&gt;&lt;span style=&quot;white-space: pre;&quot;&gt;&#x9;&lt;/span&gt;},&lt;/div&gt;&lt;div&gt;&lt;span style=&quot;white-space: pre;&quot;&gt;&#x9;&lt;/span&gt;&lt;span style=&quot;white-space: pre;&quot;&gt;&#x9;&lt;/span&gt;{&lt;/div&gt;&lt;div&gt;&lt;span style=&quot;white-space: pre;&quot;&gt;&#x9;&lt;/span&gt;&lt;span style=&quot;white-space: pre;&quot;&gt;&#x9;&lt;/span&gt;&lt;span style=&quot;white-space: pre;&quot;&gt;&#x9;&lt;/span&gt;&quot;message_text&quot;:&quot;민수님 안녕하세요 반갑습니다&quot;,&lt;/div&gt;&lt;div&gt;&lt;span style=&quot;white-space: pre;&quot;&gt;&#x9;&lt;/span&gt;&lt;span style=&quot;white-space: pre;&quot;&gt;&#x9;&lt;/span&gt;&lt;span style=&quot;white-space: pre;&quot;&gt;&#x9;&lt;/span&gt;&quot;message_user_id&quot;:&quot;jh051777&quot;,&lt;/div&gt;&lt;div&gt;&lt;span style=&quot;white-space: pre;&quot;&gt;&#x9;&lt;/span&gt;&lt;span style=&quot;white-space: pre;&quot;&gt;&#x9;&lt;/span&gt;&lt;span style=&quot;white-space: pre;&quot;&gt;&#x9;&lt;/span&gt;&quot;message_room_id&quot;:&quot;56&quot;,&lt;br&gt;&lt;/div&gt;&lt;div&gt;&lt;span style=&quot;white-space: pre;&quot;&gt;&#x9;&lt;/span&gt;&lt;span style=&quot;white-space: pre;&quot;&gt;&#x9;&lt;/span&gt;&lt;span style=&quot;white-space: pre;&quot;&gt;&#x9;&lt;/span&gt;&quot;message_timestamp&quot;:&quot;2024-10-16 10:56:45.642&quot;&lt;br&gt;&lt;/div&gt;&lt;div&gt;&lt;span style=&quot;white-space: pre;&quot;&gt;&#x9;&lt;/span&gt;&lt;span style=&quot;white-space: pre;&quot;&gt;&#x9;&lt;/span&gt;}&lt;/div&gt;&lt;div&gt;&lt;span style=&quot;white-space: pre;&quot;&gt;&#x9;&lt;/span&gt;]&lt;br&gt;&lt;/div&gt;&lt;div&gt;}&lt;/div&gt;" style="rounded=0;whiteSpace=wrap;html=1;align=left;verticalAlign=top;" vertex="1" parent="1">
          <mxGeometry x="60" y="320" width="390" height="340" as="geometry" />
        </mxCell>
      </root>
    </mxGraphModel>
  </diagram>
</mxfile>
